<svg width="640" height="420" viewBox="0 0 640 420" fill="none" xmlns="http://www.w3.org/2000/svg" role="img" aria-label="Futuristic livestock analysis">
  <defs>
    <linearGradient id="g1" x1="0" y1="0" x2="1" y2="1">
      <stop offset="0" stop-color="#6366F1" stop-opacity="0.9"/>
      <stop offset="1" stop-color="#10B981" stop-opacity="0.9"/>
    </linearGradient>
    <radialGradient id="pulse" cx="50%" cy="50%" r="50%">
      <stop offset="0" stop-color="#00E0FF" stop-opacity="0.85"/>
      <stop offset="1" stop-color="#00E0FF" stop-opacity="0"/>
    </radialGradient>
    <filter id="glow" x="-50%" y="-50%" width="200%" height="200%">
      <feGaussianBlur stdDeviation="4" result="b"/>
      <feMerge>
        <feMergeNode in="b"/>
        <feMergeNode in="SourceGraphic"/>
      </feMerge>
    </filter>
  </defs>

  <rect width="640" height="420" rx="18" fill="url(#g1)" opacity="0.12"/>

  <g opacity="0.75">
    <path d="M60 300 C120 260, 240 260, 300 300 S480 340, 560 300" stroke="#A5B4FC" stroke-opacity="0.5" stroke-width="2" fill="none"/>
    <path d="M60 330 C120 290, 240 290, 300 330 S480 370, 560 330" stroke="#99F6E4" stroke-opacity="0.45" stroke-width="2" fill="none"/>
    <path d="M60 360 C120 320, 240 320, 300 360 S480 400, 560 360" stroke="#818CF8" stroke-opacity="0.35" stroke-width="2" fill="none"/>
  </g>

  <g filter="url(#glow)">
    <circle cx="460" cy="120" r="36" fill="url(#pulse)"/>
    <circle cx="180" cy="160" r="24" fill="url(#pulse)"/>
  </g>

  <g stroke="#00E0FF" stroke-width="2.5" stroke-linecap="round" stroke-linejoin="round">
    <path d="M160 210 Q 200 170 260 190 T 360 180 Q 390 210 420 210" fill="none"/>
    <circle cx="260" cy="190" r="3.5" fill="#00E0FF"/>
    <circle cx="360" cy="180" r="3.5" fill="#00E0FF"/>
    <path d="M220 220 L 220 250 M 300 215 L 300 245 M 380 220 L 380 250" opacity="0.8"/>
  </g>

  <g opacity="0.8">
    <rect x="80" y="72" width="160" height="80" rx="10" fill="#ffffff" fill-opacity="0.06" stroke="#E5E7EB" stroke-opacity="0.35"/>
    <rect x="400" y="260" width="160" height="80" rx="10" fill="#ffffff" fill-opacity="0.06" stroke="#E5E7EB" stroke-opacity="0.35"/>
  </g>
</svg>
